<?xml version="1.0" encoding="utf-8"?>
<!-- Generator: Adobe Illustrator 25.2.0, SVG Export Plug-In . SVG Version: 6.00 Build 0)  -->
<svg version="1.1" id="Layer_1" xmlns="http://www.w3.org/2000/svg" xmlns:xlink="http://www.w3.org/1999/xlink" x="0px" y="0px"
	 width="150px" height="75px" viewBox="0 0 150 75" style="enable-background:new 0 0 150 75;" xml:space="preserve">
<style type="text/css">
	.st0{fill-rule:evenodd;clip-rule:evenodd;fill:#FFFFFF;}
	.st1{fill-rule:evenodd;clip-rule:evenodd;fill:#EB2127;}
	.st2{fill:#FFFFFF;}
</style>
<g>
	<g>
		<path class="st0" d="M143.4,24.8c-3.4-3-8.9-5.4-16.6-6.3c-1.7-0.3-3.2-0.9-3.5-2.1c-0.7-4.6,15.3-2.5,22.5,2.2v-0.1V3.8
			c-30.9-12.5-48.1,9-35.3,21c3.4,3,8.9,5.3,16.6,6.3c1.7,0.3,3.2,0.9,3.5,2.1c0.7,4.6-15.3,2.5-22.5-2.2v0.1v14.8
			C139,58.4,156.2,36.8,143.4,24.8"/>
		<path class="st0" d="M50.8,38.9l4,10.2H37.9l-3.6-9.8c5.3,0.4,10.7,0.2,16.1-0.4C50.5,39,50.7,38.9,50.8,38.9 M8.2,28.2L19,0.7
			h16.9L45.8,26c-4.5,1.6-9.4,2.5-14.1,2.9c-0.4,0-0.7,0.1-1.1,0.1l-3-8.2l-3.2,8.4C19,29.3,13.5,28.9,8.2,28.2z M0,49.1l6.5-16.5
			c4.8,2.1,9.8,3.7,14.8,4.8L16.9,49L0,49.1L0,49.1z"/>
		<path class="st0" d="M74.6,22.1v-4.4V14h5.8c2.2,0,4,1.7,4,3.9v0.3c0,2.1-1.8,3.9-4,3.9C80.4,22.1,74.6,22.1,74.6,22.1z M74.6,0.7
			H57.7v16.9v16.9V49h16.9V35.4l12.1,13.7h20.7L90.7,32.6c18.9-7.9,10.4-31.8-5.6-31.8L74.6,0.7L74.6,0.7z"/>
		<path class="st1" d="M0.3,28.2c23.7,4.3,42,2.6,54.1-4.9c0.2-0.1,0.4,0.1,0.4,0.3l-4.1,13.8c-0.1,0.2-0.2,0.3-0.5,0.4
			C31.4,39.9,14.3,35.9,0.3,28.2C0.2,28.2,0.3,28.2,0.3,28.2"/>
	</g>
	<path class="st2" d="M100.5,74.7V58.8h3.3V72h8.1v2.7H100.5z M83.8,74.7V58.6h11.9v2.7H87v3.6h8v2.7h-8V72h9v2.7H83.8z M67.1,74.7
		V58.6H79v2.7h-8.6v3.6h8v2.7h-8V72h8.9v2.7H67.1z M55.4,74.7V61.4h-4.8v-2.7h12.7v2.7h-4.7v13.3C58.6,74.7,55.4,74.7,55.4,74.7z
		 M35.8,69.5l3.2-0.3c0.2,1.1,0.6,1.8,1.2,2.3c0.6,0.5,1.4,0.7,2.3,0.7c1,0,1.8-0.2,2.4-0.7c0.5-0.4,0.8-1,0.8-1.5
		c0-0.4-0.1-0.7-0.3-1s-0.6-0.5-1.2-0.7c-0.4-0.1-1.2-0.4-2.6-0.7c-1.7-0.4-2.9-1-3.6-1.6c-1-0.9-1.5-2-1.5-3.2
		c0-0.8,0.2-1.6,0.7-2.3s1.1-1.3,2-1.6c0.9-0.4,1.9-0.6,3.2-0.6c2,0,3.5,0.4,4.5,1.3c1,0.9,1.5,2.1,1.6,3.6l-3.3,0.1
		c-0.1-0.8-0.4-1.4-0.9-1.8c-0.5-0.4-1.1-0.5-2-0.5s-1.7,0.2-2.2,0.6c-0.3,0.3-0.5,0.6-0.5,1s0.2,0.7,0.5,1c0.4,0.3,1.4,0.7,3,1.1
		s2.7,0.8,3.5,1.2c0.8,0.4,1.3,0.9,1.8,1.6c0.4,0.7,0.6,1.5,0.6,2.6c0,0.9-0.3,1.8-0.8,2.6c-0.5,0.8-1.2,1.4-2.2,1.8
		c-1,0.3-2.2,0.5-3.6,0.5c-2,0-3.6-0.5-4.7-1.4C36.7,72.7,36,71.3,35.8,69.5z"/>
</g>
</svg>
