<?xml version="1.0" encoding="utf-8"?>
<!-- Generator: Adobe Illustrator 26.5.0, SVG Export Plug-In . SVG Version: 6.00 Build 0)  -->
<svg version="1.1" id="Layer_1" xmlns="http://www.w3.org/2000/svg" xmlns:xlink="http://www.w3.org/1999/xlink" x="0px" y="0px"
	 viewBox="0 0 44 44" style="enable-background:new 0 0 44 44;" xml:space="preserve">
<style type="text/css">
	.st0{fill:#52B9FF;}
	.st1{fill:#0040A4;}
</style>
<circle class="st0" cx="16.1" cy="16.1" r="16"/>
<g id="surface172787183_00000006692615731589805480000011753215997712166274_">
	<path class="st1" d="M18.5,2.4c-3,0-5.6,2.4-5.6,5.3V8h-1.4v2.8h5.6V8h-1.4V7.8c0-1.4,1.2-2.5,2.8-2.5c1.6,0,2.8,1.2,2.8,2.5V15
		H4.1l0.5,1.8c1.4,5.6,5.9,9.5,11.2,10.4l1.7,17.2h9.1l0.1-1.3l1.6-15.9c5.3-1,9.8-4.9,11.2-10.4l0.5-1.8H24.1V7.8
		C24.1,4.8,21.6,2.4,18.5,2.4z M8,17.8h28c-1.8,4.2-5.7,7-10.1,7h-7.8C13.7,24.8,9.9,22,8,17.8z M18.7,27.6h6.7l-1.4,14h-4
		L18.7,27.6z"/>
</g>
</svg>
