<?xml version="1.0" encoding="utf-8"?>
<!-- Generator: Adobe Illustrator 26.5.0, SVG Export Plug-In . SVG Version: 6.00 Build 0)  -->
<svg version="1.1" id="Layer_1" xmlns="http://www.w3.org/2000/svg" xmlns:xlink="http://www.w3.org/1999/xlink" x="0px" y="0px"
	 viewBox="0 0 44 44" style="enable-background:new 0 0 44 44;" xml:space="preserve">
<style type="text/css">
	.st0{fill:#52B9FF;}
	.st1{fill:#0040A4;}
</style>
<circle class="st0" cx="22" cy="28" r="16"/>
<path class="st1" d="M20.6,0v2.8c-3.4,0.6-6,3.2-6.5,6.5h-1.5V12h18.7V9.3h-1.5c-0.6-3.4-3.2-6-6.5-6.5V0H20.6z M21.9,5.3
	c2.6,0,4.5,1.7,5.1,4H16.8C17.4,7,19.3,5.3,21.9,5.3z M19.2,13.3c-0.7,0-1.3,0.6-1.3,1.3s0.6,1.3,1.3,1.3s1.3-0.6,1.3-1.3
	S20,13.3,19.2,13.3z M24.6,13.3c-0.7,0-1.3,0.6-1.3,1.3s0.6,1.3,1.3,1.3s1.3-0.6,1.3-1.3S25.3,13.3,24.6,13.3z M16.6,17.3
	c-0.7,0-1.3,0.6-1.3,1.3s0.6,1.3,1.3,1.3c0.7,0,1.3-0.6,1.3-1.3S17.3,17.3,16.6,17.3z M21.9,17.3c-0.7,0-1.3,0.6-1.3,1.3
	s0.6,1.3,1.3,1.3s1.3-0.6,1.3-1.3S22.6,17.3,21.9,17.3z M27.2,17.3c-0.7,0-1.3,0.6-1.3,1.3s0.6,1.3,1.3,1.3s1.3-0.6,1.3-1.3
	S28,17.3,27.2,17.3z M13.9,21.3c-0.7,0-1.3,0.6-1.3,1.3s0.6,1.3,1.3,1.3s1.3-0.6,1.3-1.3S14.6,21.3,13.9,21.3z M19.2,21.3
	c-0.7,0-1.3,0.6-1.3,1.3s0.6,1.3,1.3,1.3s1.3-0.6,1.3-1.3S20,21.3,19.2,21.3z M24.6,21.3c-0.7,0-1.3,0.6-1.3,1.3s0.6,1.3,1.3,1.3
	s1.3-0.6,1.3-1.3S25.3,21.3,24.6,21.3z M29.9,21.3c-0.7,0-1.3,0.6-1.3,1.3s0.6,1.3,1.3,1.3s1.3-0.6,1.3-1.3S30.6,21.3,29.9,21.3z
	 M11.2,25.3c-0.7,0-1.3,0.6-1.3,1.3s0.6,1.3,1.3,1.3c0.7,0,1.3-0.6,1.3-1.3S12,25.3,11.2,25.3z M16.6,25.3c-0.7,0-1.3,0.6-1.3,1.3
	s0.6,1.3,1.3,1.3c0.7,0,1.3-0.6,1.3-1.3S17.3,25.3,16.6,25.3z M21.9,25.3c-0.7,0-1.3,0.6-1.3,1.3s0.6,1.3,1.3,1.3s1.3-0.6,1.3-1.3
	S22.6,25.3,21.9,25.3z M27.2,25.3c-0.7,0-1.3,0.6-1.3,1.3s0.6,1.3,1.3,1.3s1.3-0.6,1.3-1.3S28,25.3,27.2,25.3z M32.6,25.3
	c-0.7,0-1.3,0.6-1.3,1.3s0.6,1.3,1.3,1.3s1.3-0.6,1.3-1.3S33.3,25.3,32.6,25.3z M8.6,29.3c-0.7,0-1.3,0.6-1.3,1.3S7.8,32,8.6,32
	s1.3-0.6,1.3-1.3S9.3,29.3,8.6,29.3z M13.9,29.3c-0.7,0-1.3,0.6-1.3,1.3s0.6,1.3,1.3,1.3s1.3-0.6,1.3-1.3S14.6,29.3,13.9,29.3z
	 M19.2,29.3c-0.7,0-1.3,0.6-1.3,1.3s0.6,1.3,1.3,1.3s1.3-0.6,1.3-1.3S20,29.3,19.2,29.3z M24.6,29.3c-0.7,0-1.3,0.6-1.3,1.3
	s0.6,1.3,1.3,1.3s1.3-0.6,1.3-1.3S25.3,29.3,24.6,29.3z M29.9,29.3c-0.7,0-1.3,0.6-1.3,1.3s0.6,1.3,1.3,1.3s1.3-0.6,1.3-1.3
	S30.6,29.3,29.9,29.3z M35.2,29.3c-0.7,0-1.3,0.6-1.3,1.3s0.6,1.3,1.3,1.3s1.3-0.6,1.3-1.3S36,29.3,35.2,29.3z"/>
</svg>
