<?xml version="1.0" encoding="utf-8"?>
<!-- Generator: Adobe Illustrator 26.5.0, SVG Export Plug-In . SVG Version: 6.00 Build 0)  -->
<svg version="1.1" id="Layer_1" xmlns="http://www.w3.org/2000/svg" xmlns:xlink="http://www.w3.org/1999/xlink" x="0px" y="0px"
	 viewBox="0 0 44 44" style="enable-background:new 0 0 44 44;" xml:space="preserve">
<style type="text/css">
	.st0{fill:#52B9FF;}
	.st1{fill:#0040A4;}
</style>
<circle class="st0" cx="16.1" cy="16.1" r="16"/>
<path class="st1" d="M4.8,6.6v16.9h2.8v-2.8h9.8v8.4c0,4.6,3.8,8.4,8.4,8.4h9.8v2.8h2.8V23.4h-2.8v2.8h-7v-8.4
	c0-4.6-3.8-8.4-8.4-8.4H7.6V6.6H4.8z M7.6,12.2h12.7c3.1,0,5.6,2.5,5.6,5.6V22h-5.6v-4.2H7.6V12.2z M20.2,24.8h5.6v4.2h9.8v5.6h-9.8
	c-3.1,0-5.6-2.5-5.6-5.6V24.8z"/>
</svg>
