<?xml version="1.0" encoding="utf-8"?>
<!-- Generator: Adobe Illustrator 26.5.0, SVG Export Plug-In . SVG Version: 6.00 Build 0)  -->
<svg version="1.1" id="Layer_1" xmlns="http://www.w3.org/2000/svg" xmlns:xlink="http://www.w3.org/1999/xlink" x="0px" y="0px"
	 viewBox="0 0 44 44" style="enable-background:new 0 0 44 44;" xml:space="preserve">
<style type="text/css">
	.st0{fill:#52B9FF;}
	.st1{fill:#0040A4;}
</style>
<circle class="st0" cx="21.4" cy="19.2" r="16"/>
<path class="st1" d="M38.3,2v1.9h1v1h-3.8c-0.5,0-1,0.4-1,1v3.8h1.9V6.8h2.9v1h1.9v-1H44V4.9h-2.9v-1h1V2H38.3z M15.5,6.8
	c-1.5,0-2.8,0.6-3.6,1.5c-0.8,0.9-1.2,2.1-1.2,3.3s0.4,2.3,1.2,3.3c0.8,0.9,2.1,1.5,3.6,1.5s2.8-0.6,3.6-1.5
	c0.8-0.9,1.2-2.1,1.2-3.3S19.9,9.2,19,8.3C18.2,7.4,17,6.8,15.5,6.8z M15.5,8.7c1,0,1.7,0.4,2.1,0.9c0.5,0.5,0.7,1.2,0.7,2
	s-0.3,1.5-0.7,2c-0.5,0.5-1.1,0.9-2.1,0.9s-1.7-0.4-2.1-0.9c-0.5-0.5-0.7-1.2-0.7-2s0.3-1.5,0.7-2C13.8,9,14.4,8.7,15.5,8.7z
	 M29.8,11.5c-0.5,0-1,0.4-1,1v1.9h1.9v4.8c0,0.5,0.4,1,1,1h3.8v9.5c0,0.5,0.4,1,1,1h3.8c0.5,0,1-0.4,1-1v-3.8H44v-1.9h-3.8
	c-0.5,0-1,0.4-1,1v3.8h-1.9v-8.6h3.8c0.5,0,1-0.4,1-1v-4.8H44v-1.9c0-0.5-0.4-1-1-1H29.8z M32.6,13.5h7.6v4.8h-7.6V13.5z M25,15.4
	c-1.1,0.4-1.9,1.5-1.9,2.8c0,1.3,0.8,2.4,1.9,2.8V22h-4.1l-2-3.4c0,0,0,0,0,0c-0.8-1.3-2.3-1.3-2.3-1.3h-1.3h-3.6
	c-1.2,0-2.2,0.7-2.6,1.8l-3.6,8.8c-0.1,0.2-0.9,1.7-0.1,3.4l2.2,5.1H3.1c-1.6,0-2.9,1.3-2.9,2.9c0,1.6,1.3,2.9,2.9,2.9h8.6
	c0.9,0,1.8-0.5,2.3-1.2c0.5-0.8,0.7-1.7,0.4-2.6l0,0.1l-1.5-5.8h2.7l0.8,6.8l0-0.1c0,1.6,1.3,2.9,2.9,2.9c1.6,0,2.9-1.3,2.9-2.9
	c0,0,0-0.1,0-0.1l-1-9.5l0,0.1c0-0.7-0.3-1.4-0.8-1.9H25v2.9c0,0.5,0.4,1,0.9,1c0.5,0,1-0.4,1-0.9c0,0,0,0,0,0V27
	c0.6-0.5,1-1.3,1-2.1s-0.4-1.6-1-2.1v-1.9c1.1-0.4,1.9-1.5,1.9-2.8c0-1.3-0.8-2.4-1.9-2.8v2.9H25V15.4z M11.7,19.2h3.6h1.3
	c0,0,0.4,0,0.6,0.4h0l2.3,3.9c0.2,0.3,0.5,0.5,0.8,0.5H25v1.9h-5.7c-0.3,0-0.6-0.2-0.8-0.4h0l-2.3-3.9c-0.3-0.5-0.9-0.6-1.3-0.3
	c-0.2,0.1-0.3,0.3-0.4,0.5l-1.8,5.7c-0.2,0.5,0.1,1,0.6,1.2c0.1,0,0.2,0,0.3,0h4.8c0.5,0,1,0.4,1,1c0,0,0,0.1,0,0.1l0.9,9.4
	c0,0.5-0.4,0.9-0.9,0.9c-0.5,0-1-0.4-1-1c0,0,0-0.1,0-0.1l-1-7.6c-0.1-0.5-0.5-0.8-0.9-0.8h-4.8c-0.5,0-1,0.4-1,1c0,0.1,0,0.2,0,0.2
	l1.8,7c0,0,0,0.1,0,0.1c0.1,0.3,0.1,0.6-0.1,0.9c-0.2,0.3-0.5,0.4-0.8,0.4H3.1c-0.5,0-1-0.4-1-1s0.4-1,1-1H9c0.5,0,1-0.4,1-1
	c0-0.1,0-0.3-0.1-0.4l-2.8-6.4c0,0,0,0,0,0c-0.4-0.8,0.1-1.8,0.1-1.8c0,0,0-0.1,0-0.1l3.6-8.8c0,0,0,0,0,0
	C10.9,19.5,11.4,19.2,11.7,19.2z M15.6,24.3l1.3,2.1c0,0,0,0,0,0c0.1,0.1,0.2,0.2,0.4,0.3h-2.4L15.6,24.3z"/>
</svg>
