<?xml version="1.0" encoding="UTF-8"?>
<svg xmlns="http://www.w3.org/2000/svg" xmlns:xlink="http://www.w3.org/1999/xlink" viewBox="0 0 96 96" width="96px" height="96px">
<g id="surface190624712">
<path style=" stroke:none;fill-rule:nonzero;fill:rgb(100%,100%,100%);fill-opacity:1;" d="M 24 4 L 24 12 L 20 12 C 15.601562 12 12 15.601562 12 20 L 12 76 C 12 80.398438 15.601562 84 20 84 L 49.179688 84 C 48.421875 81.464844 48 78.78125 48 76 L 20 76 L 20 32 L 76 32 L 76 48 C 78.78125 48 81.464844 48.421875 84 49.179688 L 84 20 C 84 15.601562 80.398438 12 76 12 L 72 12 L 72 4 L 64 4 L 64 12 L 32 12 L 32 4 Z M 72.929688 56 C 72.414062 56 71.980469 56.386719 71.921875 56.898438 L 71.453125 60.945312 C 69.515625 61.617188 67.765625 62.640625 66.25 63.953125 L 62.507812 62.328125 C 62.035156 62.125 61.484375 62.3125 61.226562 62.757812 L 57.476562 69.242188 C 57.21875 69.6875 57.339844 70.253906 57.75 70.5625 L 60.976562 72.960938 C 60.785156 73.949219 60.671875 74.960938 60.671875 76 C 60.671875 77.039062 60.785156 78.050781 60.976562 79.039062 L 57.75 81.4375 C 57.339844 81.746094 57.214844 82.3125 57.476562 82.757812 L 61.226562 89.242188 C 61.484375 89.691406 62.035156 89.867188 62.507812 89.664062 L 66.25 88.046875 C 67.765625 89.363281 69.515625 90.382812 71.453125 91.054688 L 71.921875 95.101562 C 71.980469 95.613281 72.414062 96 72.929688 96 L 80.414062 96 C 80.929688 96 81.363281 95.613281 81.421875 95.101562 L 81.890625 91.054688 C 83.828125 90.382812 85.578125 89.359375 87.09375 88.046875 L 90.84375 89.671875 C 91.316406 89.875 91.859375 89.6875 92.117188 89.242188 L 95.867188 82.757812 C 96.125 82.308594 96.003906 81.742188 95.59375 81.4375 L 92.367188 79.039062 C 92.558594 78.050781 92.671875 77.039062 92.671875 76 C 92.671875 74.960938 92.558594 73.949219 92.367188 72.960938 L 95.59375 70.5625 C 96.003906 70.253906 96.128906 69.6875 95.867188 69.242188 L 92.117188 62.757812 C 91.859375 62.3125 91.316406 62.125 90.84375 62.328125 L 87.09375 63.953125 C 85.578125 62.640625 83.828125 61.617188 81.890625 60.945312 L 81.421875 56.898438 C 81.363281 56.386719 80.929688 56 80.414062 56 Z M 76.671875 68 C 81.085938 68 84.671875 71.578125 84.671875 76 C 84.671875 80.414062 81.085938 84 76.671875 84 C 72.257812 84 68.671875 80.414062 68.671875 76 C 68.671875 71.578125 72.257812 68 76.671875 68 Z M 76.671875 68 "/>
</g>
</svg>
