<svg xmlns="http://www.w3.org/2000/svg" viewBox="0 0 399.71 176.17"><defs><style>.a{fill:#1c75bc;}.b{fill:#58595b;}.c{fill:#00a651;}</style></defs><polygon class="a" points="54.23 0 54.23 17 81.73 17 81.73 124.48 102.1 124.48 102.1 17 333.48 17 333.48 0 54.23 0"/><path class="a" d="M278.72,70.7l31-38.25h23.74L302.09,68.57l34.62,56.37h-23L288.85,84,278.72,95.32Z"/><path class="b" d="M2,150.88H15.52v3.64H6.4v4.25H13v3.45H6.4v4.93H16v3.53H2Z"/><path class="b" d="M19,150.88h4.36l8.3,12.63h.05V150.88h4v19.8h-4l-8.64-12.74H23v12.74H19Z"/><path class="b" d="M38.84,160.7c0-6.21,3.45-10.2,9-10.2,3.75,0,6.74,1.5,8,6.34l-4,1.1c-.83-2.76-2.08-3.83-4-3.83-1.6,0-4.6.94-4.6,6.51s2.68,6.93,4.79,6.93A4,4,0,0,0,52.09,164H48.64v-3.24h7.6v9.93H52.73V168h0a5.46,5.46,0,0,1-5.17,3.11C41.52,171.06,38.84,166.67,38.84,160.7Z"/><path class="b" d="M60.36,150.88H64.7v19.8H60.36Z"/><path class="b" d="M69,150.88h4.36l8.3,12.63h0V150.88h4v19.8h-4l-8.64-12.74H73v12.74H69Z"/><path class="b" d="M89.78,150.88h13.49v3.64H94.14v4.25h6.61v3.45H94.14v4.93h9.61v3.53h-14Z"/><path class="b" d="M106.72,150.88h13.49v3.64h-9.13v4.25h6.61v3.45h-6.61v4.93h9.61v3.53h-14Z"/><path class="b" d="M123.66,150.88h7.44c4.88,0,7.79,1.74,7.79,6.12,0,3.14-1.47,4.85-4.12,5.65l4.42,8h-4.61l-4.12-7.47H128v7.47h-4.29Zm7.26,9c2.51,0,3.72-.72,3.72-2.73s-1.21-2.68-3.72-2.68h-3v5.41Z"/><path class="b" d="M142.75,150.88h4.33v19.8h-4.33Z"/><path class="b" d="M151.37,150.88h4.36l8.3,12.63h.05V150.88h4v19.8h-4l-8.65-12.74h-.05v12.74h-4Z"/><path class="b" d="M171.23,160.7c0-6.21,3.45-10.2,9-10.2,3.74,0,6.74,1.5,8,6.34l-4,1.1c-.83-2.76-2.09-3.83-4-3.83-1.61,0-4.6.94-4.6,6.51s2.67,6.93,4.79,6.93a4,4,0,0,0,4.07-3.56H181v-3.24h7.6v9.93h-3.5V168h-.06a5.43,5.43,0,0,1-5.16,3.11C173.9,171.06,171.23,166.67,171.23,160.7Z"/><path class="b" d="M204.36,150.79h4.15l7,19.89h-4.41l-1.47-4.42h-6.75l-1.52,4.42h-4Zm4.26,12.32-2.27-6.75h-.06L204,163.11Z"/><path class="b" d="M218,150.88h4.36l8.3,12.63h0V150.88h4v19.8h-4l-8.65-12.74H222v12.74h-4Z"/><path class="b" d="M238.82,150.88h6.07c6.05,0,10.6,2.56,10.6,9.79,0,7.44-4.63,10-10.6,10h-6.07Zm6.37,16.27c4.3,0,5.94-1.93,5.94-6.43,0-4.22-1.66-6.2-6-6.2h-2v12.63Z"/><path class="b" d="M264.75,166.18l3.29-2a5.88,5.88,0,0,0,5.36,3.37c2,0,3.45-.75,3.45-2.27s-1.42-2.14-4-2.87c-3.53-1-7.22-1.9-7.22-6,0-3.7,2.89-5.92,7.14-5.92a8.88,8.88,0,0,1,7.87,4.07l-3,2.3a5.88,5.88,0,0,0-4.87-2.81c-1.85,0-2.87.8-2.87,2,0,1.58,1.48,2.14,4.07,2.86,3.48.94,7.18,2,7.18,6.13,0,3.19-2.41,6-7.93,6A8.86,8.86,0,0,1,264.75,166.18Z"/><path class="b" d="M284.35,150.88h13.48v3.64h-9.12v4.25h6.61v3.45h-6.61v4.93h9.61v3.53h-14Z"/><path class="b" d="M301.29,150.88h7.44c4.87,0,7.79,1.74,7.79,6.12,0,3.14-1.47,4.85-4.12,5.65l4.41,8h-4.6l-4.12-7.47h-2.52v7.47h-4.28Zm7.25,9c2.52,0,3.72-.72,3.72-2.73s-1.2-2.68-3.72-2.68h-3v5.41Z"/><path class="b" d="M318,150.88h4.42L326.93,165H327l4.69-14.15h4.09l-6.82,19.88h-4.12Z"/><path class="b" d="M338.47,150.88h4.33v19.8h-4.33Z"/><path class="b" d="M346.15,160.75c0-6.88,4-10.25,9-10.25s7.18,2.68,8,6.24l-4.12,1.2c-.64-2.27-1.61-3.83-3.93-3.83-3,0-4.61,2.55-4.61,6.64s1.66,6.8,4.66,6.8c2.33,0,3.48-1.47,4.17-4.18l4.1.91c-1,4-3.32,6.78-8.3,6.78C350,171.06,346.15,167.74,346.15,160.75Z"/><path class="b" d="M366.6,150.88h13.49v3.64H371v4.25h6.61v3.45H371v4.93h9.61v3.53h-14Z"/><path class="b" d="M382.15,166.18l3.29-2a5.88,5.88,0,0,0,5.36,3.37c2,0,3.45-.75,3.45-2.27s-1.42-2.14-4-2.87c-3.53-1-7.22-1.9-7.22-6,0-3.7,2.89-5.92,7.14-5.92a8.88,8.88,0,0,1,7.87,4.07l-3,2.3a5.89,5.89,0,0,0-4.87-2.81c-1.85,0-2.87.8-2.87,2,0,1.58,1.48,2.14,4.07,2.86,3.48.94,7.17,2,7.17,6.13,0,3.19-2.4,6-7.92,6A8.86,8.86,0,0,1,382.15,166.18Z"/><polygon class="a" points="161.71 124.59 180.95 61.48 180.95 124.59 161.71 124.59"/><polygon class="a" points="141.36 124.59 122.11 61.48 122.11 124.59 141.36 124.59"/><polygon class="a" points="130.96 32.11 151.58 100.1 171.08 32.11 130.96 32.11"/><path class="b" d="M243.45,98.22c0-.17,0-.33,0-.49a13.37,13.37,0,0,0-19.95-11.66L201.12,70.55V87.32l15.61,10.81A13.35,13.35,0,0,0,236,109.72l-8.73-5-1.68-8.87,8.52-3Z"/><path class="b" d="M258.42,68.67l-15-10.36c0-.07,0-.14,0-.21A13.4,13.4,0,1,0,236.16,70l22.26,15.42Zm-32.27-3.73-4-6.84,4-6.84H234l4,6.84-4,6.84Z"/><path class="b" d="M81.73,17H54.23V0H333.48V17H81.73Z"/><polygon class="a" points="201.79 45.8 201.79 32.22 215.37 32.22 201.79 45.8"/><polygon class="a" points="201.79 110.96 201.79 124.54 215.37 124.54 201.79 110.96"/><polygon class="a" points="258.34 45.8 258.34 32.22 244.76 32.22 258.34 45.8"/><polygon class="a" points="258.34 110.97 258.34 124.55 244.76 124.55 258.34 110.97"/><rect class="c" x="62.01" y="56.53" width="0.12" height="0.35"/></svg>