<svg width="233" height="44" viewBox="0 0 1181 225" fill="none" xmlns="http://www.w3.org/2000/svg">
<path fill-rule="evenodd" clip-rule="evenodd" d="M63 37C63 19.6147 48.8853 5.5 31.5 5.5C14.1147 5.5 0 19.6147 0 37C0 54.3853 14.1147 68.5 31.5 68.5C48.8853 68.5 63 54.3853 63 37ZM52 37C52 25.6857 42.8143 16.5 31.5 16.5C20.1857 16.5 11 25.6857 11 37C11 48.3143 20.1857 57.5 31.5 57.5C42.8143 57.5 52 48.3143 52 37Z" fill="#F15C07"/>
<path d="M255.093 124.5V74.3926H271.328C277.48 74.3926 281.491 74.6432 283.359 75.1445C286.23 75.8965 288.634 77.5371 290.571 80.0664C292.508 82.5729 293.477 85.82 293.477 89.8076C293.477 92.8838 292.918 95.4701 291.802 97.5664C290.685 99.6628 289.261 101.315 287.529 102.522C285.82 103.707 284.077 104.493 282.3 104.881C279.884 105.359 276.387 105.599 271.807 105.599H265.21V124.5H255.093ZM265.21 82.8691V97.0879H270.747C274.735 97.0879 277.401 96.8258 278.745 96.3018C280.09 95.7777 281.138 94.9574 281.89 93.8408C282.664 92.7243 283.052 91.4255 283.052 89.9443C283.052 88.1214 282.516 86.6175 281.445 85.4326C280.374 84.2477 279.019 83.5072 277.378 83.2109C276.17 82.9831 273.743 82.8691 270.098 82.8691H265.21ZM310.908 124.5H301.304V88.2012H310.225V93.3623C311.751 90.9242 313.118 89.3177 314.326 88.543C315.557 87.7682 316.947 87.3809 318.496 87.3809C320.684 87.3809 322.791 87.9847 324.819 89.1924L321.846 97.5664C320.228 96.5182 318.724 95.9941 317.334 95.9941C315.99 95.9941 314.85 96.3701 313.916 97.1221C312.982 97.8512 312.241 99.1842 311.694 101.121C311.17 103.058 310.908 107.114 310.908 113.289V124.5ZM350.01 112.947L359.58 114.554C358.35 118.063 356.401 120.74 353.735 122.586C351.092 124.409 347.777 125.32 343.789 125.32C337.477 125.32 332.806 123.258 329.775 119.134C327.383 115.83 326.187 111.66 326.187 106.624C326.187 100.608 327.759 95.903 330.903 92.5078C334.048 89.0898 338.024 87.3809 342.832 87.3809C348.232 87.3809 352.493 89.1696 355.615 92.7471C358.737 96.3018 360.229 101.759 360.093 109.119H336.03C336.099 111.967 336.873 114.189 338.354 115.784C339.836 117.356 341.681 118.143 343.892 118.143C345.396 118.143 346.66 117.732 347.686 116.912C348.711 116.092 349.486 114.77 350.01 112.947ZM350.557 103.24C350.488 100.46 349.771 98.3525 348.403 96.917C347.036 95.4587 345.373 94.7295 343.413 94.7295C341.317 94.7295 339.585 95.4928 338.218 97.0195C336.851 98.5462 336.178 100.62 336.201 103.24H350.557ZM367.236 88.2012H376.089V93.1572C379.256 89.3063 383.027 87.3809 387.402 87.3809C389.727 87.3809 391.743 87.8594 393.452 88.8164C395.161 89.7734 396.562 91.2204 397.656 93.1572C399.251 91.2204 400.972 89.7734 402.817 88.8164C404.663 87.8594 406.634 87.3809 408.73 87.3809C411.396 87.3809 413.652 87.9277 415.498 89.0215C417.344 90.0924 418.722 91.6761 419.634 93.7725C420.295 95.3219 420.625 97.8285 420.625 101.292V124.5H411.021V103.753C411.021 100.153 410.69 97.8285 410.029 96.7803C409.141 95.4131 407.773 94.7295 405.928 94.7295C404.583 94.7295 403.319 95.1396 402.134 95.96C400.949 96.7803 400.094 97.988 399.57 99.583C399.046 101.155 398.784 103.65 398.784 107.068V124.5H389.18V104.607C389.18 101.076 389.009 98.7969 388.667 97.7715C388.325 96.7461 387.79 95.9827 387.061 95.4814C386.354 94.9801 385.386 94.7295 384.155 94.7295C382.674 94.7295 381.341 95.1283 380.156 95.9258C378.971 96.7233 378.117 97.874 377.593 99.3779C377.091 100.882 376.841 103.377 376.841 106.863V124.5H367.236V88.2012ZM430.229 83.2793V74.3926H439.834V83.2793H430.229ZM430.229 124.5V88.2012H439.834V124.5H430.229ZM470.732 112.947L480.303 114.554C479.072 118.063 477.124 120.74 474.458 122.586C471.815 124.409 468.499 125.32 464.512 125.32C458.2 125.32 453.529 123.258 450.498 119.134C448.105 115.83 446.909 111.66 446.909 106.624C446.909 100.608 448.481 95.903 451.626 92.5078C454.771 89.0898 458.747 87.3809 463.555 87.3809C468.955 87.3809 473.216 89.1696 476.338 92.7471C479.46 96.3018 480.952 101.759 480.815 109.119H456.753C456.821 111.967 457.596 114.189 459.077 115.784C460.558 117.356 462.404 118.143 464.614 118.143C466.118 118.143 467.383 117.732 468.408 116.912C469.434 116.092 470.208 114.77 470.732 112.947ZM471.279 103.24C471.211 100.46 470.493 98.3525 469.126 96.917C467.759 95.4587 466.095 94.7295 464.136 94.7295C462.039 94.7295 460.308 95.4928 458.94 97.0195C457.573 98.5462 456.901 100.62 456.924 103.24H471.279ZM497.871 124.5H488.267V88.2012H497.188V93.3623C498.714 90.9242 500.081 89.3177 501.289 88.543C502.52 87.7682 503.91 87.3809 505.459 87.3809C507.646 87.3809 509.754 87.9847 511.782 89.1924L508.809 97.5664C507.191 96.5182 505.687 95.9941 504.297 95.9941C502.952 95.9941 501.813 96.3701 500.879 97.1221C499.945 97.8512 499.204 99.1842 498.657 101.121C498.133 103.058 497.871 107.114 497.871 113.289V124.5ZM535.469 74.3926H553.96C558.13 74.3926 561.309 74.7116 563.496 75.3496C566.436 76.2155 568.953 77.7536 571.05 79.9639C573.146 82.1742 574.741 84.8857 575.835 88.0986C576.929 91.2887 577.476 95.2308 577.476 99.9248C577.476 104.049 576.963 107.604 575.938 110.589C574.684 114.235 572.896 117.186 570.571 119.441C568.817 121.15 566.447 122.483 563.462 123.44C561.229 124.147 558.244 124.5 554.507 124.5H535.469V74.3926ZM545.586 82.8691V116.058H553.14C555.965 116.058 558.005 115.898 559.258 115.579C560.898 115.169 562.254 114.474 563.325 113.494C564.419 112.514 565.308 110.908 565.991 108.675C566.675 106.419 567.017 103.354 567.017 99.4805C567.017 95.6068 566.675 92.6331 565.991 90.5596C565.308 88.486 564.351 86.8682 563.12 85.7061C561.89 84.5439 560.329 83.7578 558.438 83.3477C557.025 83.0286 554.256 82.8691 550.132 82.8691H545.586ZM586.021 83.2793V74.3926H595.625V83.2793H586.021ZM586.021 124.5V88.2012H595.625V124.5H586.021ZM602.119 114.144L611.758 112.674C612.168 114.542 613 115.966 614.253 116.946C615.506 117.903 617.261 118.382 619.517 118.382C622 118.382 623.869 117.926 625.122 117.015C625.965 116.377 626.387 115.522 626.387 114.451C626.387 113.722 626.159 113.118 625.703 112.64C625.225 112.184 624.154 111.762 622.49 111.375C614.743 109.666 609.832 108.105 607.759 106.692C604.888 104.733 603.452 102.01 603.452 98.5234C603.452 95.3789 604.694 92.7357 607.178 90.5938C609.661 88.4518 613.512 87.3809 618.73 87.3809C623.698 87.3809 627.389 88.1898 629.805 89.8076C632.22 91.4255 633.883 93.818 634.795 96.9854L625.737 98.6602C625.35 97.2474 624.609 96.165 623.516 95.4131C622.445 94.6611 620.907 94.2852 618.901 94.2852C616.372 94.2852 614.561 94.6383 613.467 95.3447C612.738 95.846 612.373 96.4954 612.373 97.293C612.373 97.9766 612.692 98.5576 613.33 99.0361C614.196 99.6742 617.181 100.574 622.285 101.736C627.412 102.898 630.99 104.323 633.018 106.009C635.023 107.718 636.025 110.099 636.025 113.152C636.025 116.479 634.635 119.339 631.855 121.731C629.076 124.124 624.963 125.32 619.517 125.32C614.572 125.32 610.653 124.318 607.759 122.312C604.888 120.307 603.008 117.584 602.119 114.144ZM661.113 88.2012V95.8574H654.551V110.486C654.551 113.449 654.608 115.18 654.722 115.682C654.858 116.16 655.143 116.559 655.576 116.878C656.032 117.197 656.579 117.356 657.217 117.356C658.105 117.356 659.393 117.049 661.079 116.434L661.899 123.885C659.666 124.842 657.137 125.32 654.312 125.32C652.58 125.32 651.019 125.035 649.629 124.466C648.239 123.873 647.214 123.121 646.553 122.21C645.915 121.276 645.47 120.022 645.22 118.45C645.015 117.334 644.912 115.078 644.912 111.683V95.8574H640.503V88.2012H644.912V80.9893L654.551 75.3838V88.2012H661.113ZM667.778 83.2793V74.3926H677.383V83.2793H667.778ZM667.778 124.5V88.2012H677.383V124.5H667.778ZM687.261 124.5V74.3926H696.865V124.5H687.261ZM706.743 124.5V74.3926H716.348V124.5H706.743ZM747.246 112.947L756.816 114.554C755.586 118.063 753.638 120.74 750.972 122.586C748.328 124.409 745.013 125.32 741.025 125.32C734.714 125.32 730.042 123.258 727.012 119.134C724.619 115.83 723.423 111.66 723.423 106.624C723.423 100.608 724.995 95.903 728.14 92.5078C731.284 89.0898 735.26 87.3809 740.068 87.3809C745.469 87.3809 749.73 89.1696 752.852 92.7471C755.973 96.3018 757.466 101.759 757.329 109.119H733.267C733.335 111.967 734.11 114.189 735.591 115.784C737.072 117.356 738.918 118.143 741.128 118.143C742.632 118.143 743.896 117.732 744.922 116.912C745.947 116.092 746.722 114.77 747.246 112.947ZM747.793 103.24C747.725 100.46 747.007 98.3525 745.64 96.917C744.272 95.4587 742.609 94.7295 740.649 94.7295C738.553 94.7295 736.821 95.4928 735.454 97.0195C734.087 98.5462 733.415 100.62 733.438 103.24H747.793ZM774.385 124.5H764.78V88.2012H773.701V93.3623C775.228 90.9242 776.595 89.3177 777.803 88.543C779.033 87.7682 780.423 87.3809 781.973 87.3809C784.16 87.3809 786.268 87.9847 788.296 89.1924L785.322 97.5664C783.704 96.5182 782.201 95.9941 780.811 95.9941C779.466 95.9941 778.327 96.3701 777.393 97.1221C776.458 97.8512 775.718 99.1842 775.171 101.121C774.647 103.058 774.385 107.114 774.385 113.289V124.5ZM792.466 83.2793V74.3926H802.07V83.2793H792.466ZM792.466 124.5V88.2012H802.07V124.5H792.466ZM832.969 112.947L842.539 114.554C841.309 118.063 839.36 120.74 836.694 122.586C834.051 124.409 830.736 125.32 826.748 125.32C820.436 125.32 815.765 123.258 812.734 119.134C810.342 115.83 809.146 111.66 809.146 106.624C809.146 100.608 810.718 95.903 813.862 92.5078C817.007 89.0898 820.983 87.3809 825.791 87.3809C831.191 87.3809 835.452 89.1696 838.574 92.7471C841.696 96.3018 843.188 101.759 843.052 109.119H818.989C819.058 111.967 819.832 114.189 821.313 115.784C822.795 117.356 824.64 118.143 826.851 118.143C828.354 118.143 829.619 117.732 830.645 116.912C831.67 116.092 832.445 114.77 832.969 112.947ZM833.516 103.24C833.447 100.46 832.729 98.3525 831.362 96.917C829.995 95.4587 828.332 94.7295 826.372 94.7295C824.276 94.7295 822.544 95.4928 821.177 97.0195C819.81 98.5462 819.137 100.62 819.16 103.24H833.516ZM847.529 114.144L857.168 112.674C857.578 114.542 858.41 115.966 859.663 116.946C860.916 117.903 862.671 118.382 864.927 118.382C867.41 118.382 869.279 117.926 870.532 117.015C871.375 116.377 871.797 115.522 871.797 114.451C871.797 113.722 871.569 113.118 871.113 112.64C870.635 112.184 869.564 111.762 867.9 111.375C860.153 109.666 855.243 108.105 853.169 106.692C850.298 104.733 848.862 102.01 848.862 98.5234C848.862 95.3789 850.104 92.7357 852.588 90.5938C855.072 88.4518 858.923 87.3809 864.141 87.3809C869.108 87.3809 872.799 88.1898 875.215 89.8076C877.63 91.4255 879.294 93.818 880.205 96.9854L871.147 98.6602C870.76 97.2474 870.02 96.165 868.926 95.4131C867.855 94.6611 866.317 94.2852 864.312 94.2852C861.782 94.2852 859.971 94.6383 858.877 95.3447C858.148 95.846 857.783 96.4954 857.783 97.293C857.783 97.9766 858.102 98.5576 858.74 99.0361C859.606 99.6742 862.591 100.574 867.695 101.736C872.822 102.898 876.4 104.323 878.428 106.009C880.433 107.718 881.436 110.099 881.436 113.152C881.436 116.479 880.046 119.339 877.266 121.731C874.486 124.124 870.373 125.32 864.927 125.32C859.982 125.32 856.063 124.318 853.169 122.312C850.298 120.307 848.418 117.584 847.529 114.144ZM909.702 124.5V74.8027H919.819V116.058H944.976V124.5H909.702ZM952.153 83.2793V74.3926H961.758V83.2793H952.153ZM952.153 124.5V88.2012H961.758V124.5H952.153ZM970.918 88.2012H979.771V93.1572C982.938 89.3063 986.709 87.3809 991.084 87.3809C993.408 87.3809 995.425 87.8594 997.134 88.8164C998.843 89.7734 1000.24 91.2204 1001.34 93.1572C1002.93 91.2204 1004.65 89.7734 1006.5 88.8164C1008.34 87.8594 1010.32 87.3809 1012.41 87.3809C1015.08 87.3809 1017.33 87.9277 1019.18 89.0215C1021.03 90.0924 1022.4 91.6761 1023.32 93.7725C1023.98 95.3219 1024.31 97.8285 1024.31 101.292V124.5H1014.7V103.753C1014.7 100.153 1014.37 97.8285 1013.71 96.7803C1012.82 95.4131 1011.46 94.7295 1009.61 94.7295C1008.26 94.7295 1007 95.1396 1005.82 95.96C1004.63 96.7803 1003.78 97.988 1003.25 99.583C1002.73 101.155 1002.47 103.65 1002.47 107.068V124.5H992.861V104.607C992.861 101.076 992.69 98.7969 992.349 97.7715C992.007 96.7461 991.471 95.9827 990.742 95.4814C990.036 94.9801 989.067 94.7295 987.837 94.7295C986.356 94.7295 985.023 95.1283 983.838 95.9258C982.653 96.7233 981.799 97.874 981.274 99.3779C980.773 100.882 980.522 103.377 980.522 106.863V124.5H970.918V88.2012ZM1033.91 83.2793V74.3926H1043.52V83.2793H1033.91ZM1033.91 124.5V88.2012H1043.52V124.5H1033.91ZM1070.04 88.2012V95.8574H1063.48V110.486C1063.48 113.449 1063.53 115.18 1063.65 115.682C1063.78 116.16 1064.07 116.559 1064.5 116.878C1064.96 117.197 1065.5 117.356 1066.14 117.356C1067.03 117.356 1068.32 117.049 1070 116.434L1070.83 123.885C1068.59 124.842 1066.06 125.32 1063.24 125.32C1061.51 125.32 1059.94 125.035 1058.55 124.466C1057.16 123.873 1056.14 123.121 1055.48 122.21C1054.84 121.276 1054.4 120.022 1054.15 118.45C1053.94 117.334 1053.84 115.078 1053.84 111.683V95.8574H1049.43V88.2012H1053.84V80.9893L1063.48 75.3838V88.2012H1070.04ZM1097.72 112.947L1107.29 114.554C1106.06 118.063 1104.12 120.74 1101.45 122.586C1098.81 124.409 1095.49 125.32 1091.5 125.32C1085.19 125.32 1080.52 123.258 1077.49 119.134C1075.1 115.83 1073.9 111.66 1073.9 106.624C1073.9 100.608 1075.47 95.903 1078.62 92.5078C1081.76 89.0898 1085.74 87.3809 1090.55 87.3809C1095.95 87.3809 1100.21 89.1696 1103.33 92.7471C1106.45 96.3018 1107.94 101.759 1107.81 109.119H1083.75C1083.81 111.967 1084.59 114.189 1086.07 115.784C1087.55 117.356 1089.4 118.143 1091.61 118.143C1093.11 118.143 1094.38 117.732 1095.4 116.912C1096.43 116.092 1097.2 114.77 1097.72 112.947ZM1098.27 103.24C1098.2 100.46 1097.49 98.3525 1096.12 96.917C1094.75 95.4587 1093.09 94.7295 1091.13 94.7295C1089.03 94.7295 1087.3 95.4928 1085.93 97.0195C1084.57 98.5462 1083.89 100.62 1083.92 103.24H1098.27ZM1148.96 124.5H1140.04V119.168C1138.56 121.242 1136.8 122.791 1134.78 123.816C1132.77 124.819 1130.74 125.32 1128.69 125.32C1124.52 125.32 1120.94 123.646 1117.96 120.296C1115 116.924 1113.52 112.229 1113.52 106.214C1113.52 100.062 1114.96 95.3903 1117.86 92.2002C1120.75 88.9873 1124.41 87.3809 1128.83 87.3809C1132.88 87.3809 1136.39 89.0671 1139.36 92.4395V74.3926H1148.96V124.5ZM1123.33 105.564C1123.33 109.438 1123.86 112.241 1124.93 113.973C1126.48 116.479 1128.65 117.732 1131.43 117.732C1133.64 117.732 1135.52 116.798 1137.07 114.93C1138.61 113.038 1139.39 110.224 1139.39 106.487C1139.39 102.317 1138.64 99.321 1137.13 97.498C1135.63 95.6523 1133.7 94.7295 1131.36 94.7295C1129.08 94.7295 1127.16 95.641 1125.62 97.4639C1124.09 99.264 1123.33 101.964 1123.33 105.564Z" fill="black"/>
<path d="M255.093 124.5V74.3926H271.328C277.48 74.3926 281.491 74.6432 283.359 75.1445C286.23 75.8965 288.634 77.5371 290.571 80.0664C292.508 82.5729 293.477 85.82 293.477 89.8076C293.477 92.8838 292.918 95.4701 291.802 97.5664C290.685 99.6628 289.261 101.315 287.529 102.522C285.82 103.707 284.077 104.493 282.3 104.881C279.884 105.359 276.387 105.599 271.807 105.599H265.21V124.5H255.093ZM265.21 82.8691V97.0879H270.747C274.735 97.0879 277.401 96.8258 278.745 96.3018C280.09 95.7777 281.138 94.9574 281.89 93.8408C282.664 92.7243 283.052 91.4255 283.052 89.9443C283.052 88.1214 282.516 86.6175 281.445 85.4326C280.374 84.2477 279.019 83.5072 277.378 83.2109C276.17 82.9831 273.743 82.8691 270.098 82.8691H265.21Z" fill="#031C69"/>
<path d="M310.908 124.5H301.304V88.2012H310.225V93.3623C311.751 90.9242 313.118 89.3177 314.326 88.543C315.557 87.7682 316.947 87.3809 318.496 87.3809C320.684 87.3809 322.791 87.9847 324.819 89.1924L321.846 97.5664C320.228 96.5182 318.724 95.9941 317.334 95.9941C315.99 95.9941 314.85 96.3701 313.916 97.1221C312.982 97.8512 312.241 99.1842 311.694 101.121C311.17 103.058 310.908 107.114 310.908 113.289V124.5Z" fill="#031C69"/>
<path d="M350.01 112.947L359.58 114.554C358.35 118.063 356.401 120.74 353.735 122.586C351.092 124.409 347.777 125.32 343.789 125.32C337.477 125.32 332.806 123.258 329.775 119.134C327.383 115.83 326.187 111.66 326.187 106.624C326.187 100.608 327.759 95.903 330.903 92.5078C334.048 89.0898 338.024 87.3809 342.832 87.3809C348.232 87.3809 352.493 89.1696 355.615 92.7471C358.737 96.3018 360.229 101.759 360.093 109.119H336.03C336.099 111.967 336.873 114.189 338.354 115.784C339.836 117.356 341.681 118.143 343.892 118.143C345.396 118.143 346.66 117.732 347.686 116.912C348.711 116.092 349.486 114.77 350.01 112.947ZM350.557 103.24C350.488 100.46 349.771 98.3525 348.403 96.917C347.036 95.4587 345.373 94.7295 343.413 94.7295C341.317 94.7295 339.585 95.4928 338.218 97.0195C336.851 98.5462 336.178 100.62 336.201 103.24H350.557Z" fill="#031C69"/>
<path d="M367.236 88.2012H376.089V93.1572C379.256 89.3063 383.027 87.3809 387.402 87.3809C389.727 87.3809 391.743 87.8594 393.452 88.8164C395.161 89.7734 396.562 91.2204 397.656 93.1572C399.251 91.2204 400.972 89.7734 402.817 88.8164C404.663 87.8594 406.634 87.3809 408.73 87.3809C411.396 87.3809 413.652 87.9277 415.498 89.0215C417.344 90.0924 418.722 91.6761 419.634 93.7725C420.295 95.3219 420.625 97.8285 420.625 101.292V124.5H411.021V103.753C411.021 100.153 410.69 97.8285 410.029 96.7803C409.141 95.4131 407.773 94.7295 405.928 94.7295C404.583 94.7295 403.319 95.1396 402.134 95.96C400.949 96.7803 400.094 97.988 399.57 99.583C399.046 101.155 398.784 103.65 398.784 107.068V124.5H389.18V104.607C389.18 101.076 389.009 98.7969 388.667 97.7715C388.325 96.7461 387.79 95.9827 387.061 95.4814C386.354 94.9801 385.386 94.7295 384.155 94.7295C382.674 94.7295 381.341 95.1283 380.156 95.9258C378.971 96.7233 378.117 97.874 377.593 99.3779C377.091 100.882 376.841 103.377 376.841 106.863V124.5H367.236V88.2012Z" fill="#031C69"/>
<path d="M430.229 83.2793V74.3926H439.834V83.2793H430.229ZM430.229 124.5V88.2012H439.834V124.5H430.229Z" fill="#031C69"/>
<path d="M470.732 112.947L480.303 114.554C479.072 118.063 477.124 120.74 474.458 122.586C471.815 124.409 468.499 125.32 464.512 125.32C458.2 125.32 453.529 123.258 450.498 119.134C448.105 115.83 446.909 111.66 446.909 106.624C446.909 100.608 448.481 95.903 451.626 92.5078C454.771 89.0898 458.747 87.3809 463.555 87.3809C468.955 87.3809 473.216 89.1696 476.338 92.7471C479.46 96.3018 480.952 101.759 480.815 109.119H456.753C456.821 111.967 457.596 114.189 459.077 115.784C460.558 117.356 462.404 118.143 464.614 118.143C466.118 118.143 467.383 117.732 468.408 116.912C469.434 116.092 470.208 114.77 470.732 112.947ZM471.279 103.24C471.211 100.46 470.493 98.3525 469.126 96.917C467.759 95.4587 466.095 94.7295 464.136 94.7295C462.039 94.7295 460.308 95.4928 458.94 97.0195C457.573 98.5462 456.901 100.62 456.924 103.24H471.279Z" fill="#031C69"/>
<path d="M497.871 124.5H488.267V88.2012H497.188V93.3623C498.714 90.9242 500.081 89.3177 501.289 88.543C502.52 87.7682 503.91 87.3809 505.459 87.3809C507.646 87.3809 509.754 87.9847 511.782 89.1924L508.809 97.5664C507.191 96.5182 505.687 95.9941 504.297 95.9941C502.952 95.9941 501.813 96.3701 500.879 97.1221C499.945 97.8512 499.204 99.1842 498.657 101.121C498.133 103.058 497.871 107.114 497.871 113.289V124.5Z" fill="#031C69"/>
<path d="M535.469 74.3926H553.96C558.13 74.3926 561.309 74.7116 563.496 75.3496C566.436 76.2155 568.953 77.7536 571.05 79.9639C573.146 82.1742 574.741 84.8857 575.835 88.0986C576.929 91.2887 577.476 95.2308 577.476 99.9248C577.476 104.049 576.963 107.604 575.938 110.589C574.684 114.235 572.896 117.186 570.571 119.441C568.817 121.15 566.447 122.483 563.462 123.44C561.229 124.147 558.244 124.5 554.507 124.5H535.469V74.3926ZM545.586 82.8691V116.058H553.14C555.965 116.058 558.005 115.898 559.258 115.579C560.898 115.169 562.254 114.474 563.325 113.494C564.419 112.514 565.308 110.908 565.991 108.675C566.675 106.419 567.017 103.354 567.017 99.4805C567.017 95.6068 566.675 92.6331 565.991 90.5596C565.308 88.486 564.351 86.8682 563.12 85.7061C561.89 84.5439 560.329 83.7578 558.438 83.3477C557.025 83.0286 554.256 82.8691 550.132 82.8691H545.586Z" fill="#031C69"/>
<path d="M586.021 83.2793V74.3926H595.625V83.2793H586.021ZM586.021 124.5V88.2012H595.625V124.5H586.021Z" fill="#031C69"/>
<path d="M602.119 114.144L611.758 112.674C612.168 114.542 613 115.966 614.253 116.946C615.506 117.903 617.261 118.382 619.517 118.382C622 118.382 623.869 117.926 625.122 117.015C625.965 116.377 626.387 115.522 626.387 114.451C626.387 113.722 626.159 113.118 625.703 112.64C625.225 112.184 624.154 111.762 622.49 111.375C614.743 109.666 609.832 108.105 607.759 106.692C604.888 104.733 603.452 102.01 603.452 98.5234C603.452 95.3789 604.694 92.7357 607.178 90.5938C609.661 88.4518 613.512 87.3809 618.73 87.3809C623.698 87.3809 627.389 88.1898 629.805 89.8076C632.22 91.4255 633.883 93.818 634.795 96.9854L625.737 98.6602C625.35 97.2474 624.609 96.165 623.516 95.4131C622.445 94.6611 620.907 94.2852 618.901 94.2852C616.372 94.2852 614.561 94.6383 613.467 95.3447C612.738 95.846 612.373 96.4954 612.373 97.293C612.373 97.9766 612.692 98.5576 613.33 99.0361C614.196 99.6742 617.181 100.574 622.285 101.736C627.412 102.898 630.99 104.323 633.018 106.009C635.023 107.718 636.025 110.099 636.025 113.152C636.025 116.479 634.635 119.339 631.855 121.731C629.076 124.124 624.963 125.32 619.517 125.32C614.572 125.32 610.653 124.318 607.759 122.312C604.888 120.307 603.008 117.584 602.119 114.144Z" fill="#031C69"/>
<path d="M661.113 88.2012V95.8574H654.551V110.486C654.551 113.449 654.608 115.18 654.722 115.682C654.858 116.16 655.143 116.559 655.576 116.878C656.032 117.197 656.579 117.356 657.217 117.356C658.105 117.356 659.393 117.049 661.079 116.434L661.899 123.885C659.666 124.842 657.137 125.32 654.312 125.32C652.58 125.32 651.019 125.035 649.629 124.466C648.239 123.873 647.214 123.121 646.553 122.21C645.915 121.276 645.47 120.022 645.22 118.45C645.015 117.334 644.912 115.078 644.912 111.683V95.8574H640.503V88.2012H644.912V80.9893L654.551 75.3838V88.2012H661.113Z" fill="#031C69"/>
<path d="M667.778 83.2793V74.3926H677.383V83.2793H667.778ZM667.778 124.5V88.2012H677.383V124.5H667.778Z" fill="#031C69"/>
<path d="M687.261 124.5V74.3926H696.865V124.5H687.261Z" fill="#031C69"/>
<path d="M706.743 124.5V74.3926H716.348V124.5H706.743Z" fill="#031C69"/>
<path d="M747.246 112.947L756.816 114.554C755.586 118.063 753.638 120.74 750.972 122.586C748.328 124.409 745.013 125.32 741.025 125.32C734.714 125.32 730.042 123.258 727.012 119.134C724.619 115.83 723.423 111.66 723.423 106.624C723.423 100.608 724.995 95.903 728.14 92.5078C731.284 89.0898 735.26 87.3809 740.068 87.3809C745.469 87.3809 749.73 89.1696 752.852 92.7471C755.973 96.3018 757.466 101.759 757.329 109.119H733.267C733.335 111.967 734.11 114.189 735.591 115.784C737.072 117.356 738.918 118.143 741.128 118.143C742.632 118.143 743.896 117.732 744.922 116.912C745.947 116.092 746.722 114.77 747.246 112.947ZM747.793 103.24C747.725 100.46 747.007 98.3525 745.64 96.917C744.272 95.4587 742.609 94.7295 740.649 94.7295C738.553 94.7295 736.821 95.4928 735.454 97.0195C734.087 98.5462 733.415 100.62 733.438 103.24H747.793Z" fill="#031C69"/>
<path d="M774.385 124.5H764.78V88.2012H773.701V93.3623C775.228 90.9242 776.595 89.3177 777.803 88.543C779.033 87.7682 780.423 87.3809 781.973 87.3809C784.16 87.3809 786.268 87.9847 788.296 89.1924L785.322 97.5664C783.704 96.5182 782.201 95.9941 780.811 95.9941C779.466 95.9941 778.327 96.3701 777.393 97.1221C776.458 97.8512 775.718 99.1842 775.171 101.121C774.647 103.058 774.385 107.114 774.385 113.289V124.5Z" fill="#031C69"/>
<path d="M792.466 83.2793V74.3926H802.07V83.2793H792.466ZM792.466 124.5V88.2012H802.07V124.5H792.466Z" fill="#031C69"/>
<path d="M832.969 112.947L842.539 114.554C841.309 118.063 839.36 120.74 836.694 122.586C834.051 124.409 830.736 125.32 826.748 125.32C820.436 125.32 815.765 123.258 812.734 119.134C810.342 115.83 809.146 111.66 809.146 106.624C809.146 100.608 810.718 95.903 813.862 92.5078C817.007 89.0898 820.983 87.3809 825.791 87.3809C831.191 87.3809 835.452 89.1696 838.574 92.7471C841.696 96.3018 843.188 101.759 843.052 109.119H818.989C819.058 111.967 819.832 114.189 821.313 115.784C822.795 117.356 824.64 118.143 826.851 118.143C828.354 118.143 829.619 117.732 830.645 116.912C831.67 116.092 832.445 114.77 832.969 112.947ZM833.516 103.24C833.447 100.46 832.729 98.3525 831.362 96.917C829.995 95.4587 828.332 94.7295 826.372 94.7295C824.276 94.7295 822.544 95.4928 821.177 97.0195C819.81 98.5462 819.137 100.62 819.16 103.24H833.516Z" fill="#031C69"/>
<path d="M847.529 114.144L857.168 112.674C857.578 114.542 858.41 115.966 859.663 116.946C860.916 117.903 862.671 118.382 864.927 118.382C867.41 118.382 869.279 117.926 870.532 117.015C871.375 116.377 871.797 115.522 871.797 114.451C871.797 113.722 871.569 113.118 871.113 112.64C870.635 112.184 869.564 111.762 867.9 111.375C860.153 109.666 855.243 108.105 853.169 106.692C850.298 104.733 848.862 102.01 848.862 98.5234C848.862 95.3789 850.104 92.7357 852.588 90.5938C855.072 88.4518 858.923 87.3809 864.141 87.3809C869.108 87.3809 872.799 88.1898 875.215 89.8076C877.63 91.4255 879.294 93.818 880.205 96.9854L871.147 98.6602C870.76 97.2474 870.02 96.165 868.926 95.4131C867.855 94.6611 866.317 94.2852 864.312 94.2852C861.782 94.2852 859.971 94.6383 858.877 95.3447C858.148 95.846 857.783 96.4954 857.783 97.293C857.783 97.9766 858.102 98.5576 858.74 99.0361C859.606 99.6742 862.591 100.574 867.695 101.736C872.822 102.898 876.4 104.323 878.428 106.009C880.433 107.718 881.436 110.099 881.436 113.152C881.436 116.479 880.046 119.339 877.266 121.731C874.486 124.124 870.373 125.32 864.927 125.32C859.982 125.32 856.063 124.318 853.169 122.312C850.298 120.307 848.418 117.584 847.529 114.144Z" fill="#031C69"/>
<path d="M909.702 124.5V74.8027H919.819V116.058H944.976V124.5H909.702Z" fill="#031C69"/>
<path d="M952.153 83.2793V74.3926H961.758V83.2793H952.153ZM952.153 124.5V88.2012H961.758V124.5H952.153Z" fill="#031C69"/>
<path d="M970.918 88.2012H979.771V93.1572C982.938 89.3063 986.709 87.3809 991.084 87.3809C993.408 87.3809 995.425 87.8594 997.134 88.8164C998.843 89.7734 1000.24 91.2204 1001.34 93.1572C1002.93 91.2204 1004.65 89.7734 1006.5 88.8164C1008.34 87.8594 1010.32 87.3809 1012.41 87.3809C1015.08 87.3809 1017.33 87.9277 1019.18 89.0215C1021.03 90.0924 1022.4 91.6761 1023.32 93.7725C1023.98 95.3219 1024.31 97.8285 1024.31 101.292V124.5H1014.7V103.753C1014.7 100.153 1014.37 97.8285 1013.71 96.7803C1012.82 95.4131 1011.46 94.7295 1009.61 94.7295C1008.26 94.7295 1007 95.1396 1005.82 95.96C1004.63 96.7803 1003.78 97.988 1003.25 99.583C1002.73 101.155 1002.47 103.65 1002.47 107.068V124.5H992.861V104.607C992.861 101.076 992.69 98.7969 992.349 97.7715C992.007 96.7461 991.471 95.9827 990.742 95.4814C990.036 94.9801 989.067 94.7295 987.837 94.7295C986.356 94.7295 985.023 95.1283 983.838 95.9258C982.653 96.7233 981.799 97.874 981.274 99.3779C980.773 100.882 980.522 103.377 980.522 106.863V124.5H970.918V88.2012Z" fill="#031C69"/>
<path d="M1033.91 83.2793V74.3926H1043.52V83.2793H1033.91ZM1033.91 124.5V88.2012H1043.52V124.5H1033.91Z" fill="#031C69"/>
<path d="M1070.04 88.2012V95.8574H1063.48V110.486C1063.48 113.449 1063.53 115.18 1063.65 115.682C1063.78 116.16 1064.07 116.559 1064.5 116.878C1064.96 117.197 1065.5 117.356 1066.14 117.356C1067.03 117.356 1068.32 117.049 1070 116.434L1070.83 123.885C1068.59 124.842 1066.06 125.32 1063.24 125.32C1061.51 125.32 1059.94 125.035 1058.55 124.466C1057.16 123.873 1056.14 123.121 1055.48 122.21C1054.84 121.276 1054.4 120.022 1054.15 118.45C1053.94 117.334 1053.84 115.078 1053.84 111.683V95.8574H1049.43V88.2012H1053.84V80.9893L1063.48 75.3838V88.2012H1070.04Z" fill="#031C69"/>
<path d="M1097.72 112.947L1107.29 114.554C1106.06 118.063 1104.12 120.74 1101.45 122.586C1098.81 124.409 1095.49 125.32 1091.5 125.32C1085.19 125.32 1080.52 123.258 1077.49 119.134C1075.1 115.83 1073.9 111.66 1073.9 106.624C1073.9 100.608 1075.47 95.903 1078.62 92.5078C1081.76 89.0898 1085.74 87.3809 1090.55 87.3809C1095.95 87.3809 1100.21 89.1696 1103.33 92.7471C1106.45 96.3018 1107.94 101.759 1107.81 109.119H1083.75C1083.81 111.967 1084.59 114.189 1086.07 115.784C1087.55 117.356 1089.4 118.143 1091.61 118.143C1093.11 118.143 1094.38 117.732 1095.4 116.912C1096.43 116.092 1097.2 114.77 1097.72 112.947ZM1098.27 103.24C1098.2 100.46 1097.49 98.3525 1096.12 96.917C1094.75 95.4587 1093.09 94.7295 1091.13 94.7295C1089.03 94.7295 1087.3 95.4928 1085.93 97.0195C1084.57 98.5462 1083.89 100.62 1083.92 103.24H1098.27Z" fill="#031C69"/>
<path d="M1148.96 124.5H1140.04V119.168C1138.56 121.242 1136.8 122.791 1134.78 123.816C1132.77 124.819 1130.74 125.32 1128.69 125.32C1124.52 125.32 1120.94 123.646 1117.96 120.296C1115 116.924 1113.52 112.229 1113.52 106.214C1113.52 100.062 1114.96 95.3903 1117.86 92.2002C1120.75 88.9873 1124.41 87.3809 1128.83 87.3809C1132.88 87.3809 1136.39 89.0671 1139.36 92.4395V74.3926H1148.96V124.5ZM1123.33 105.564C1123.33 109.438 1123.86 112.241 1124.93 113.973C1126.48 116.479 1128.65 117.732 1131.43 117.732C1133.64 117.732 1135.52 116.798 1137.07 114.93C1138.61 113.038 1139.39 110.224 1139.39 106.487C1139.39 102.317 1138.64 99.321 1137.13 97.498C1135.63 95.6523 1133.7 94.7295 1131.36 94.7295C1129.08 94.7295 1127.16 95.641 1125.62 97.4639C1124.09 99.264 1123.33 101.964 1123.33 105.564Z" fill="#031C69"/>
<path d="M1181 137.5H250V142.5H1181V137.5Z" fill="#F15C07"/>
<path fill-rule="evenodd" clip-rule="evenodd" d="M82 98V173L66.5 188.5H120L105.5 173V98L156 38.5L93.5 84L58 50L93.5 38.5H23L82 98Z" fill="#0057A9"/>
<path fill-rule="evenodd" clip-rule="evenodd" d="M116 63L175.5 0L206.5 46.5L194.5 54.5L173 21.5L116 63Z" fill="#F15C07"/>
<path fill-rule="evenodd" clip-rule="evenodd" d="M165 140.5C146.385 167.661 114.5 183 114.5 183L105.5 172V98L156 38.5L174 27C174 27 183.03 46.3704 185 70.5C185.657 78.5468 182.411 115.095 165 140.5ZM107.5 43.5L139.5 38L132 46L107.5 43.5ZM93.5 54.5L129 49L121.5 57L93.5 54.5ZM91.5 50L75.5 47.5L101 42.5H81L58 50L63 55L91.5 50ZM117.5 66.5L86.5 72L106.5 74.5L117.5 66.5ZM85.5 62L119.5 59L113.5 65.5L85.5 62Z" fill="#63CDF6"/>
<path fill-rule="evenodd" clip-rule="evenodd" d="M30.1605 204.747C49.409 217.241 72.3635 224.5 97 224.5C164.886 224.5 220 169.386 220 101.5C220 89.829 218.371 78.5356 215.328 67.8347L204.703 70.6953C207.501 80.4836 209 90.8182 209 101.5C209 163.314 158.814 213.5 97 213.5C74.8298 213.5 54.1555 207.044 36.7559 195.912L30.1605 204.747V204.747Z" fill="#F15C07"/>
</svg>
